#!OML:ASF X:\für Bonn\!DataBase\2005_08_12_Daniel\c3d\Daniel.ASF
:FULLY-SPECIFIED
:DEGREES
95
root 2.23266 17.594 18.6679 -5.12366 -352.457 361.604
lowerback 4.00262 1.25662 2.02184
upperback -0.0340249 1.65811 -5.6098
thorax -2.05863 0.788345 -7.08319
lowerneck 2.63515 -1.63888 -0.737063
upperneck 7.42883 -2.31178 2.21079
head 1.9071 -1.12602 0.794918
rclavicle 3.05134e-014 -1.90833e-014
rhumerus 46.589 8.9168 -55.969
rradius 46.5001
rwrist 3.76482
rhand -13.9395 16.5084
rfingers 7.12502
rthumb 12.1874 -13.1165
lclavicle 3.05134e-014 -1.90833e-014
lhumerus -38.0368 39.9603 57.3932
lradius 16.8832
lwrist -42.2634
lhand -11.7194 -6.44262
lfingers 7.12502
lthumb 14.3274 23.043
rfemur 6.12676 16.3165 18.872
rtibia 19.5188
rfoot -24.8239 -20.842
rtoes -12.8808
lfemur -1.33576 -17.6504 -22.4168
ltibia 28.804
lfoot -21.0775 5.34193
ltoes -14.3519
96
root 2.23282 17.5937 18.6666 -5.11658 -352.336 361.578
lowerback 3.95389 1.34563 2.16778
upperback -0.0319553 1.78379 -5.68961
thorax -2.00496 0.851572 -7.25793
lowerneck 2.63416 -1.75489 -0.767822
upperneck 7.46738 -2.47486 2.33661
head 1.92536 -1.20538 0.838265
rclavicle 1.05356e-014 9.54166e-015
rhumerus 47.9662 8.70864 -55.2851
rradius 44.1496
rwrist 4.02441
rhand -13.2306 16.1323
rfingers 7.12502
rthumb 12.8709 -13.4508
lclavicle 1.05356e-014 9.54166e-015
lhumerus -37.4723 39.6291 57.7417
lradius 16.8628
lwrist -42.0721
lhand -11.7425 -6.41183
lfingers 7.12502
lthumb 14.3051 23.0754
rfemur 6.15624 16.231 18.8927
rtibia 19.4771
rfoot -24.8339 -20.8744
rtoes -12.8686
lfemur -1.37335 -17.7154 -22.3817
ltibia 28.8255
lfoot -21.0734 5.27144
ltoes -14.3102
97
root 2.23278 17.5933 18.6662 -5.12791 -352.211 361.578
lowerback 3.8985 1.41158 2.24735
upperback -0.00810628 1.87662 -5.74511
thorax -1.93164 0.900095 -7.36552
lowerneck 2.61724 -1.84789 -0.840821
upperneck 7.50776 -2.6075 2.45966
head 1.94743 -1.27061 0.888128
rclavicle -1.30204e-014 1.27222e-014
rhumerus 49.3097 8.58565 -54.5493
rradius 41.9268
rwrist 4.15328
rhand -12.4832 15.6656
rfingers 7.12502
rthumb 13.5913 -13.8708
lclavicle -1.30204e-014 1.27222e-014
lhumerus -36.9726 39.4291 58.0671
lradius 16.8409
lwrist -41.8804
lhand -11.8354 -6.3621
lfingers 7.12502
lthumb 14.2156 23.1314
rfemur 6.22142 16.176 18.9035
rtibia 19.4386
rfoot -24.8621 -20.931
rtoes -12.7875
lfemur -1.39422 -17.7373 -22.3764
ltibia 28.8472
lfoot -21.0596 5.17362
ltoes -14.2621
98
root 2.23239 17.593 18.6649 -5.12672 -352.082 361.564
lowerback 3.85129 1.46648 2.34597
upperback -0.00312378 1.95477 -5.79634
thorax -1.88367 0.94005 -7.47962
lowerneck 2.61575 -1.92785 -0.924741
upperneck 7.55482 -2.72191 2.56415
head 1.96877 -1.32744 0.934327
rclavicle 5.26779e-015 5.88403e-014
rhumerus 50.5941 8.52705 -53.8391
rradius 39.7604
rwrist 4.18971
rhand -11.746 15.1739
rfingers 7.12502
rthumb 14.3017 -14.3135
lclavicle 5.26779e-015 5.88403e-014
lhumerus -36.5479 39.2806 58.3214
lradius 16.815
lwrist -41.7152
lhand -11.9133 -6.33857
lfingers 7.12502
lthumb 14.1405 23.1602
rfemur 6.25867 16.1136 18.9233
rtibia 19.4059
rfoot -24.8915 -20.9884
rtoes -12.7679
lfemur -1.43029 -17.7862 -22.3537
ltibia 28.8643
lfoot -21.0541 5.09482
ltoes -14.3211
99
root 2.23133 17.593 18.663 -5.12523 -351.939 361.55
lowerback 3.79623 1.52262 2.43819
upperback 0.0167184 2.0347 -5.85873
thorax -1.81501 0.981995 -7.60133
lowerneck 2.59279 -2.0209 -0.94613
upperneck 7.59296 -2.85221 2.65051
head 1.99005 -1.39077 0.963798
rclavicle -3.34952e-014 1.59028e-014
rhumerus 51.7673 8.4713 -53.0839
rradius 37.7442
rwrist 4.11982
rhand -10.9816 14.6123
rfingers 7.12502
rthumb 15.0382 -14.8216
lclavicle -3.34952e-014 1.59028e-014
lhumerus -36.0586 39.0894 58.6336
lradius 16.7849
lwrist -41.4762
lhand -12.0606 -6.23973
lfingers 7.12502
lthumb 13.9986 23.2689
rfemur 6.2952 16.0347 18.9425
rtibia 19.3727
rfoot -24.9193 -21.045
rtoes -12.7477
lfemur -1.47235 -17.8186 -22.3217
ltibia 28.8848
lfoot -21.0353 4.98579
ltoes -14.3338
100
root 2.23097 17.5924 18.6605 -5.13819 -351.814 361.538
lowerback 3.76635 1.5809 2.51523
upperback 0.0383169 2.11672 -5.9211
thorax -1.75847 1.02493 -7.71517
lowerneck 2.57521 -2.10934 -0.931587
upperneck 7.61891 -2.97559 2.73113
head 2.00564 -1.44989 0.985417
rclavicle 2.39536e-014 2.54444e-014
rhumerus 52.8752 8.42871 -52.3547
rradius 35.7954
rwrist 4.05191
rhand -10.1862 14.1448
rfingers 7.12502
rthumb 15.8043 -15.2301
lclavicle 2.39536e-014 2.54444e-014
lhumerus -35.5532 38.8539 58.9707
lradius 16.7487
lwrist -41.1214
lhand -12.1515 -6.11733
lfingers 7.12502
lthumb 13.911 23.3974
rfemur 6.34125 15.99 18.9654
rtibia 19.347
rfoot -24.9551 -21.112
rtoes -12.724
lfemur -1.49525 -17.8645 -22.307
ltibia 28.8998
lfoot -21.0131 4.9106
ltoes -14.2854
101
root 2.2296 17.5925 18.657 -5.14769 -351.688 361.523
lowerback 3.75979 1.6366 2.5819
upperback 0.0418222 2.1941 -5.97919
thorax -1.73464 1.0643 -7.81965
lowerneck 2.56721 -2.20029 -0.908199
upperneck 7.65854 -3.10181 2.79811
head 2.02371 -1.51039 1.00121
rclavicle 7.87187e-014 1.59028e-015
rhumerus 53.8485 8.39262 -51.7483
rradius 34.0119
rwrist 4.06484
rhand -9.31697 13.6321
rfingers 7.12502
rthumb 16.6413 -15.6745
lclavicle 7.87187e-014 1.59028e-015
lhumerus -35.1616 38.8384 59.1421
lradius 16.662
lwrist -40.9307
lhand -12.2381 -6.06866
lfingers 7.12502
lthumb 13.8276 23.4517
rfemur 6.37729 15.9125 18.9842
rtibia 19.3176
rfoot -24.9551 -21.1586
rtoes -12.7489
lfemur -1.53039 -17.876 -22.2686
ltibia 28.9202
lfoot -21.0089 4.76579
ltoes -14.2331
102
root 2.22881 17.5921 18.6535 -5.15116 -351.557 361.524
lowerback 3.74611 1.68917 2.62114
upperback 0.0546264 2.26662 -6.02591
thorax -1.69909 1.10207 -7.89507
lowerneck 2.52124 -2.2831 -0.909848
upperneck 7.71075 -3.21712 2.85525
head 2.05268 -1.5659 1.01787
rclavicle 5.51627e-014 -5.24792e-014
rhumerus 54.7062 8.29001 -51.3756
rradius 32.352
rwrist 4.31137
rhand -8.2966 13.2905
rfingers 7.12502
rthumb 17.6234 -15.9308
lclavicle 5.51627e-014 -5.24792e-014
lhumerus -34.8186 39.0283 59.2535
lradius 16.5399
lwrist -40.9665
lhand -12.3464 -6.00458
lfingers 7.12502
lthumb 13.7232 23.5229
rfemur 6.41163 15.8703 18.9938
rtibia 19.2941
rfoot -24.9926 -21.233
rtoes -12.7225
lfemur -1.56825 -17.9126 -22.2582
ltibia 28.9344
lfoot -20.9802 4.67363
ltoes -14.2399
103
root 2.22791 17.5924 18.6498 -5.14941 -351.415 361.51
lowerback 3.73816 1.73749 2.67187
upperback 0.056944 2.33351 -6.0755
thorax -1.67773 1.13627 -7.98062
lowerneck 2.48867 -2.36678 -0.857417
upperneck 7.77126 -3.33223 2.89087
head 2.08046 -1.62023 1.0185
rclavicle -7.35503e-015 0
rhumerus 55.4507 8.15107 -51.1708
rradius 30.8123
rwrist 4.72309
rhand -7.22496 13.0327
rfingers 7.12502
rthumb 18.6545 -16.0928
lclavicle -7.35503e-015 0
lhumerus -34.452 38.9632 59.4842
lradius 16.5007
lwrist -40.774
lhand -12.3927 -5.89728
lfingers 7.12502
lthumb 13.6786 23.6332
rfemur 6.43876 15.81 19.0096
rtibia 19.2667
rfoot -25.0516 -21.283
rtoes -12.6427
lfemur -1.61779 -17.9514 -22.2277
ltibia 28.9533
lfoot -20.953 4.5717
ltoes -14.1941
104
root 2.22742 17.5917 18.6466 -5.17157 -351.275 361.509
lowerback 3.75195 1.78396 2.70792
upperback 0.0701696 2.39764 -6.12502
thorax -1.65805 1.16944 -8.05808
lowerneck 2.44753 -2.45046 -0.828687
upperneck 7.8166 -3.44809 2.9396
head 2.10566 -1.67536 1.0272
rclavicle 5.92378e-014 -5.08889e-014
rhumerus 56.1339 8.02907 -50.9665
rradius 29.3833
rwrist 5.17889
rhand -6.12813 12.8451
rfingers 7.12502
rthumb 19.7092 -16.1758
lclavicle 5.92378e-014 -5.08889e-014
lhumerus -34.102 38.8847 59.7379
lradius 16.4822
lwrist -40.5625
lhand -12.3944 -5.77748
lfingers 7.12502
lthumb 13.6769 23.7531
rfemur 6.49683 15.7628 19.0269
rtibia 19.2424
rfoot -25.0947 -21.3593
rtoes -12.6152
lfemur -1.6398 -17.964 -22.2153
ltibia 28.9691
lfoot -20.924 4.44922
ltoes -14.2006
105
root 2.22667 17.5919 18.6431 -5.169 -351.145 361.496
lowerback 3.74939 1.82944 2.75463
upperback 0.07255 2.46058 -6.17384
thorax -1.64001 1.20164 -8.14058
lowerneck 2.3925 -2.52937 -0.792611
upperneck 7.8816 -3.55744 2.97677
head 2.13921 -1.72693 1.0308
rclavicle -4.57205e-015 -3.33958e-014
rhumerus 56.7628 7.96181 -50.6396
rradius 28.0981
rwrist 5.46504
rhand -5.00888 12.6513
rfingers 7.12502
rthumb 20.7849 -16.2555
lclavicle -4.57205e-015 -3.33958e-014
lhumerus -33.7705 38.7442 60.0079
lradius 16.4863
lwrist -40.3148
lhand -12.4201 -5.64244
lfingers 7.12502
lthumb 13.6521 23.8898
rfemur 6.52441 15.7202 19.0483
rtibia 19.2138
rfoot -25.1289 -21.4351
rtoes -12.5888
lfemur -1.68393 -18.0139 -22.1876
ltibia 28.9879
lfoot -20.9188 4.35445
ltoes -14.2128
